<?xml version="1.0" encoding="iso-8859-1"?>
<!-- Generator: Adobe Illustrator 19.0.0, SVG Export Plug-In . SVG Version: 6.00 Build 0)  -->
<svg version="1.1" id="Layer_1" xmlns="http://www.w3.org/2000/svg" xmlns:xlink="http://www.w3.org/1999/xlink" x="0px" y="0px"
	 viewBox="0 0 512 512" style="enable-background:new 0 0 512 512;" xml:space="preserve">
<rect x="91.079" y="95.811" style="fill:#9CDCFF;" width="329.832" height="405.99"/>
<rect x="159.363" y="184.575" style="fill:#FFFFFF;" width="193.275" height="193.275"/>
<path style="fill:#45B5F5;" d="M193.788,333.732c0-27.544,27.853-49.872,62.212-49.872s62.212,22.329,62.212,49.872H193.788z"/>
<circle style="fill:#FFE049;" cx="256" cy="254.837" r="28.923"/>
<rect x="225.015" y="10.199" style="fill:#45B5F5;" width="61.975" height="125.532"/>
<g>
	<path style="fill:#3B404F;" d="M420.918,85.61H297.186V10.199C297.186,4.566,292.62,0,286.987,0h-61.975
		c-5.633,0-10.199,4.566-10.199,10.199V85.61H91.082c-5.633,0-10.199,4.566-10.199,10.199v405.992
		c0,5.633,4.566,10.199,10.199,10.199h329.836c5.633,0,10.199-4.566,10.199-10.199V95.809
		C431.117,90.176,426.551,85.61,420.918,85.61z M235.212,20.398h41.577v105.128h-41.577V20.398z M322.44,145.925
		c5.633,0,10.199-4.566,10.199-10.199c0-5.633-4.566-10.199-10.199-10.199h-25.253v-19.518h113.531v385.593H101.281V106.008h113.531
		v19.518h-25.253c-5.633,0-10.199,4.566-10.199,10.199c0,5.633,4.566,10.199,10.199,10.199L322.44,145.925L322.44,145.925z"/>
	<path style="fill:#3B404F;" d="M352.611,425.424h-11.533c-5.633,0-10.199,4.566-10.199,10.199s4.566,10.199,10.199,10.199h11.533
		c5.633,0,10.199-4.566,10.199-10.199S358.244,425.424,352.611,425.424z"/>
	<path style="fill:#3B404F;" d="M296.967,425.424H159.389c-5.633,0-10.199,4.566-10.199,10.199s4.566,10.199,10.199,10.199h137.578
		c5.633,0,10.199-4.566,10.199-10.199S302.599,425.424,296.967,425.424z"/>
	<path style="fill:#3B404F;" d="M149.161,184.571V377.85c0,5.633,4.566,10.199,10.199,10.199h193.279
		c5.633,0,10.199-4.566,10.199-10.199V184.571c0-5.633-4.566-10.199-10.199-10.199H159.361
		C153.727,174.372,149.161,178.938,149.161,184.571z M169.56,194.77H342.44v172.881H169.56V194.77z"/>
	<path style="fill:#3B404F;" d="M286.518,279.275c5.376-6.701,8.603-15.197,8.603-24.436c0-21.571-17.55-39.121-39.121-39.121
		s-39.121,17.55-39.121,39.121c0,9.239,3.227,17.735,8.603,24.436c-24.716,9.571-41.893,30.376-41.893,54.457
		c0,5.633,4.566,10.199,10.199,10.199h124.424c5.633,0,10.199-4.566,10.199-10.199C328.411,309.651,311.235,288.847,286.518,279.275
		z M256,236.116c10.324,0,18.723,8.399,18.723,18.723c0,10.325-8.399,18.724-18.723,18.724c-10.324,0-18.723-8.399-18.723-18.724
		C237.277,244.515,245.676,236.116,256,236.116z M205.729,323.533c5.916-16.95,26.212-29.474,50.271-29.474
		s44.355,12.525,50.271,29.474H205.729z"/>
	<path style="fill:#3B404F;" d="M256,30.136c-5.633,0-10.199,4.566-10.199,10.199v2.229c0,5.633,4.566,10.199,10.199,10.199
		s10.199-4.566,10.199-10.199v-2.229C266.199,34.702,261.633,30.136,256,30.136z"/>
</g>
<g>
</g>
<g>
</g>
<g>
</g>
<g>
</g>
<g>
</g>
<g>
</g>
<g>
</g>
<g>
</g>
<g>
</g>
<g>
</g>
<g>
</g>
<g>
</g>
<g>
</g>
<g>
</g>
<g>
</g>
</svg>
