<?xml version="1.0" encoding="UTF-8" standalone="no"?>
<!-- Generator: Adobe Illustrator 19.0.0, SVG Export Plug-In . SVG Version: 6.00 Build 0)  -->

<svg
   xmlns:dc="http://purl.org/dc/elements/1.1/"
   xmlns:cc="http://creativecommons.org/ns#"
   xmlns:rdf="http://www.w3.org/1999/02/22-rdf-syntax-ns#"
   xmlns:svg="http://www.w3.org/2000/svg"
   xmlns="http://www.w3.org/2000/svg"
   xmlns:sodipodi="http://sodipodi.sourceforge.net/DTD/sodipodi-0.dtd"
   xmlns:inkscape="http://www.inkscape.org/namespaces/inkscape"
   version="1.1"
   id="Capa_1"
   x="0px"
   y="0px"
   viewBox="0 0 476.315 476.315"
   style="enable-background:new 0 0 476.315 476.315;"
   xml:space="preserve"
   sodipodi:docname="trabajoequipo.svg"
   inkscape:version="0.92.2 (5c3e80d, 2017-08-06)"><metadata
     id="metadata15493"><rdf:RDF><cc:Work
         rdf:about=""><dc:format>image/svg+xml</dc:format><dc:type
           rdf:resource="http://purl.org/dc/dcmitype/StillImage" /><dc:title></dc:title></cc:Work></rdf:RDF></metadata><defs
     id="defs15491" /><sodipodi:namedview
     pagecolor="#ffffff"
     bordercolor="#666666"
     borderopacity="1"
     objecttolerance="10"
     gridtolerance="10"
     guidetolerance="10"
     inkscape:pageopacity="0"
     inkscape:pageshadow="2"
     inkscape:window-width="716"
     inkscape:window-height="480"
     id="namedview15489"
     showgrid="false"
     inkscape:zoom="0.49547043"
     inkscape:cx="238.1575"
     inkscape:cy="238.1575"
     inkscape:window-x="0"
     inkscape:window-y="0"
     inkscape:window-maximized="0"
     inkscape:current-layer="Capa_1" /><path
     style="fill:#2170a6;fill-opacity:1"
     d="M453.818,257.552c0,119.467-96.97,215.661-215.661,215.661S22.497,377.018,22.497,257.552  c0-100.848,78.352-215.661,215.661-215.661C357.624,41.891,453.818,138.861,453.818,257.552z"
     id="path15394" /><rect
     x="86.284"
     y="171.331"
     transform="matrix(-0.4999 0.8661 -0.8661 -0.4999 296.158 187.1656)"
     style="fill:#193651;"
     width="15.515"
     height="15.515"
     id="rect15396" /><rect
     x="122.636"
     y="192.168"
     transform="matrix(-0.4999 0.8661 -0.8661 -0.4999 368.729 186.9353)"
     style="fill:#193651;"
     width="15.515"
     height="15.515"
     id="rect15398" /><rect
     x="158.995"
     y="213.005"
     transform="matrix(-0.4999 0.8661 -0.8661 -0.4999 441.3117 186.6983)"
     style="fill:#193651;"
     width="15.515"
     height="15.515"
     id="rect15400" /><rect
     x="229.624"
     y="408.049"
     style="fill:#193651;"
     width="15.515"
     height="15.515"
     id="rect15402" /><rect
     x="229.624"
     y="366.158"
     style="fill:#193651;"
     width="15.515"
     height="15.515"
     id="rect15404" /><rect
     x="229.624"
     y="324.267"
     style="fill:#193651;"
     width="15.515"
     height="15.515"
     id="rect15406" /><rect
     x="363.141"
     y="165.338"
     transform="matrix(-0.8661 0.4999 -0.4999 -0.8661 778.6583 137.6015)"
     style="fill:#193651;"
     width="15.515"
     height="15.515"
     id="rect15408" /><rect
     x="326.689"
     y="186.345"
     transform="matrix(-0.8661 0.4999 -0.4999 -0.8661 721.1365 195.0256)"
     style="fill:#193651;"
     width="15.515"
     height="15.515"
     id="rect15410" /><g
     id="g15420"><rect
       x="290.925"
       y="206.967"
       transform="matrix(-0.8663 0.4996 -0.4996 -0.8663 664.6936 251.517)"
       style="fill:#193651;"
       width="15.516"
       height="15.516"
       id="rect15412" /><path
       style="fill:#193651;"
       d="M235.055,269.964c-5.43,0-9.309-3.879-9.309-9.309v-64.388c0-5.43,3.879-9.309,9.309-9.309   c5.43,0,9.309,3.879,9.309,9.309v64.388C244.364,265.309,240.485,269.964,235.055,269.964z"
       id="path15414" /><path
       style="fill:#193651;"
       d="M165.236,316.509c-3.103-3.879-2.327-10.085,1.552-13.188l62.061-50.424   c3.879-3.103,10.085-2.327,13.188,1.552s2.327,10.085-1.552,13.188l-62.061,50.424   C174.545,321.164,169.115,320.388,165.236,316.509z"
       id="path15416" /><path
       style="fill:#193651;"
       d="M297.891,318.061l-68.267-50.424c-3.879-3.103-5.43-9.309-2.327-13.188s9.309-5.43,13.188-2.327   l68.267,50.424c3.879,3.103,5.43,9.309,2.327,13.188C307.976,320.388,302.545,321.164,297.891,318.061z"
       id="path15418" /></g><circle
     style="fill:#4FBF9F;"
     cx="235.055"
     cy="103.952"
     r="91.539"
     id="circle15422" /><path
     style="fill:#193651;"
     d="M235.055,204.8c-55.855,0-100.848-45.77-100.848-100.848S179.976,3.103,235.055,3.103  c55.855,0,100.848,45.77,100.848,100.848S290.909,204.8,235.055,204.8z M235.055,21.721c-45.77,0-82.23,36.461-82.23,82.23  s37.236,82.23,82.23,82.23c45.77,0,82.23-37.236,82.23-82.23C317.285,58.182,280.824,21.721,235.055,21.721z"
     id="path15424" /><path
     style="fill:#FFFFFF;"
     d="M296.339,103.952c0,14.739-4.655,27.927-13.188,38.012c-10.861,13.964-28.703,23.273-48.097,23.273  s-36.461-9.309-48.097-23.273c-8.533-10.085-13.188-24.048-13.188-38.012c0-34.133,27.152-61.285,61.285-61.285  S296.339,69.818,296.339,103.952z"
     id="path15426" /><g
     id="g15432"><circle
       style="fill:#E1E6E9;"
       cx="235.055"
       cy="85.333"
       r="27.152"
       id="circle15428" /><path
       style="fill:#E1E6E9;"
       d="M283.152,137.309v4.655c-10.861,13.964-28.703,23.273-48.097,23.273s-36.461-9.309-48.097-23.273   v-4.655c0-10.085,6.206-19.394,15.515-23.273c7.758,9.309,19.394,14.739,32.582,14.739c13.188,0,24.824-5.43,32.582-14.739   C276.945,117.915,283.152,126.448,283.152,137.309z"
       id="path15430" /></g><circle
     style="fill:#2EA2DB;"
     cx="100.848"
     cy="367.709"
     r="91.539"
     id="circle15434" /><path
     style="fill:#193651;"
     d="M100.848,469.333C44.994,469.333,0,423.564,0,368.485c0-55.855,45.77-100.848,100.848-100.848  c55.855,0,100.848,45.77,100.848,100.848C202.473,423.564,156.703,469.333,100.848,469.333z M100.848,285.479  c-45.77,0-82.23,37.236-82.23,82.23c0,45.77,37.236,82.23,82.23,82.23c45.77,0,82.23-37.236,82.23-82.23  C183.855,322.715,146.618,285.479,100.848,285.479z"
     id="path15436" /><path
     style="fill:#FFFFFF;"
     d="M162.133,367.709c0,14.739-4.655,27.927-13.188,38.012c-10.861,13.964-28.703,23.273-48.097,23.273  s-36.461-9.309-48.097-23.273c-8.533-10.085-13.188-24.048-13.188-38.012c0-34.133,27.152-61.285,61.285-61.285  S162.133,334.352,162.133,367.709z"
     id="path15438" /><g
     id="g15444"><circle
       style="fill:#E1E6E9;"
       cx="100.848"
       cy="349.091"
       r="27.152"
       id="circle15440" /><path
       style="fill:#E1E6E9;"
       d="M148.945,401.067v4.655c-10.861,13.964-28.703,23.273-48.097,23.273s-36.461-9.309-48.097-23.273   v-4.655c0-10.085,6.206-19.394,15.515-23.273c7.758,9.309,19.394,14.739,32.582,14.739s24.824-5.43,32.582-14.739   C142.739,381.673,148.945,390.982,148.945,401.067z"
       id="path15442" /></g><circle
     style="fill:#F16051;"
     cx="375.467"
     cy="367.709"
     r="91.539"
     id="circle15446" /><path
     style="fill:#193651;"
     d="M375.467,469.333c-55.855,0-100.848-45.77-100.848-100.848c0-55.855,45.77-100.848,100.848-100.848  c55.855,0,100.848,45.77,100.848,100.848S431.321,469.333,375.467,469.333z M375.467,285.479c-45.77,0-82.23,37.236-82.23,82.23  c0,45.77,37.236,82.23,82.23,82.23c45.77,0,82.23-37.236,82.23-82.23C457.697,322.715,420.461,285.479,375.467,285.479z"
     id="path15448" /><path
     style="fill:#FFFFFF;"
     d="M435.976,367.709c0,14.739-4.655,27.927-13.188,38.012c-10.861,13.964-28.703,23.273-48.097,23.273  c-19.394,0-36.461-9.309-48.097-23.273c-8.533-10.085-13.188-24.048-13.188-38.012c0-34.133,27.152-61.285,61.285-61.285  S435.976,334.352,435.976,367.709z"
     id="path15450" /><g
     id="g15456"><circle
       style="fill:#E1E6E9;"
       cx="375.467"
       cy="349.091"
       r="27.152"
       id="circle15452" /><path
       style="fill:#E1E6E9;"
       d="M422.788,401.067v4.655c-10.861,13.964-28.703,23.273-48.097,23.273   c-19.394,0-36.461-9.309-48.097-23.273v-4.655c0-10.085,6.206-19.394,15.515-23.273c7.758,9.309,19.394,14.739,32.582,14.739   c13.188,0,24.824-5.43,32.582-14.739C416.582,381.673,422.788,390.982,422.788,401.067z"
       id="path15454" /></g><g
     id="g15458" /><g
     id="g15460" /><g
     id="g15462" /><g
     id="g15464" /><g
     id="g15466" /><g
     id="g15468" /><g
     id="g15470" /><g
     id="g15472" /><g
     id="g15474" /><g
     id="g15476" /><g
     id="g15478" /><g
     id="g15480" /><g
     id="g15482" /><g
     id="g15484" /><g
     id="g15486" /></svg>